Coordinates
version=1
nRows=64
nColumns=11
inDegrees=no

Units are S.I. units (second, meters, Newtons, ...)
If the header above contains a line with 'inDegrees', this indicates whether rotational values are in degrees (yes) or radians (no).

endheader
time	pelvis_tilt	pelvis_tx	pelvis_ty	hip_flexion_r	knee_angle_r	ankle_angle_r	hip_flexion_l	knee_angle_l	ankle_angle_l	lumbar_extension
210.99	0.0679847	0.249945	0.990127	0.0886326	-1.13554	0.0142154	0.108214	-0.232696	0.119752	0
211	0.0691534	0.249385	0.992761	0.115366	-1.14857	0.0163225	0.0909129	-0.228258	0.124259	0
211.01	0.0475005	0.24452	0.994009	0.172296	-1.1559	0.0206789	0.0971616	-0.210997	0.12782	0
211.02	0.073328	0.248546	0.99805	0.159886	-1.15004	0.0234956	0.0482784	-0.208562	0.136987	0
211.03	0.0548626	0.244355	0.99921	0.207518	-1.14115	0.0390606	0.0472976	-0.184162	0.136099	0
211.04	0.0454881	0.24079	1.00059	0.245224	-1.13401	0.0484575	0.0375841	-0.168127	0.135443	0
211.05	0.047273	0.24033	1.00248	0.262903	-1.11393	0.0545992	0.0150879	-0.155409	0.140727	0
211.06	0.0769503	0.244152	1.00561	0.240329	-1.08894	0.0696674	-0.0280171	-0.175259	0.16072	0
211.07	0.045839	0.237263	1.00144	0.305451	-1.07367	0.100687	0.0879866	-0.33776	0.219217	0
211.08	0.0801766	0.242145	1.00597	0.270916	-1.03408	0.104352	0.0178453	-0.318113	0.222783	0
211.09	0.0569559	0.237618	1.00645	0.309571	-0.983969	0.12044	0.006003	-0.262729	0.220611	0
211.1	0.0561681	0.236036	1.00729	0.320288	-0.938508	0.129356	-0.0128353	-0.251491	0.228407	0
211.11	0.0577477	0.235525	1.00806	0.326196	-0.88765	0.135642	-0.0331262	-0.240986	0.234059	0
211.12	0.0579004	0.234627	1.0087	0.331333	-0.832097	0.138286	-0.0560836	-0.222702	0.238553	0
211.13	0.0465321	0.231578	1.00813	0.349834	-0.773596	0.139839	-0.0650643	-0.203048	0.237483	0
211.14	0.0615483	0.233399	1.00938	0.325736	-0.703648	0.142585	-0.10784	-0.187076	0.245516	0
211.15	0.0627397	0.23264	1.00894	0.321007	-0.634031	0.143735	-0.129064	-0.174735	0.252258	0
211.16	0.0628437	0.232066	1.00799	0.316314	-0.563796	0.142264	-0.149972	-0.162005	0.26258	0
211.17	0.0634913	0.231843	1.00683	0.308771	-0.491159	0.142235	-0.173712	-0.146446	0.270642	0
211.18	0.0642815	0.231629	1.00549	0.300998	-0.418615	0.141853	-0.198551	-0.128865	0.274323	0
211.19	0.0649791	0.231437	1.00383	0.293007	-0.347449	0.143054	-0.219738	-0.118297	0.283029	0
211.2	0.0652204	0.231476	1.00164	0.285458	-0.279638	0.148634	-0.23834	-0.111828	0.296819	0
211.21	0.0653407	0.231655	0.99913	0.278463	-0.216929	0.157997	-0.257197	-0.10537	0.310394	0
211.22	0.0637962	0.2317	0.996465	0.274895	-0.160682	0.166099	-0.273268	-0.0997105	0.321051	0
211.23	0.0633174	0.231534	0.993921	0.273572	-0.116207	0.172955	-0.288537	-0.0966265	0.329729	0
211.24	0.0630659	0.231391	0.991512	0.272762	-0.080001	0.179239	-0.304358	-0.0933022	0.340844	0
211.25	0.0622148	0.231028	0.988929	0.2748	-0.0550329	0.184692	-0.318395	-0.0928489	0.352287	0
211.26	0.0598944	0.230557	0.986065	0.277967	-0.0376832	0.191529	-0.327371	-0.100208	0.364238	0
211.27	0.0588935	0.230841	0.983264	0.279638	-0.028743	0.198827	-0.333426	-0.115521	0.379936	0
211.28	0.0840804	0.234564	0.982843	0.251052	-0.0372689	0.20317	-0.370048	-0.137474	0.396446	0
211.29	0.06148	0.232308	0.978906	0.277659	-0.0422655	0.197804	-0.355376	-0.138427	0.402184	0
211.3	0.062233	0.233023	0.976868	0.278521	-0.0630894	0.18823	-0.366458	-0.148433	0.407166	0
211.31	0.085872	0.236614	0.976543	0.253962	-0.0950635	0.175759	-0.397983	-0.175897	0.417659	0
211.32	0.0852318	0.237032	0.974622	0.257187	-0.118729	0.158114	-0.3986	-0.201123	0.422799	0
211.33	0.0828719	0.237197	0.973024	0.263866	-0.141411	0.134175	-0.395814	-0.228232	0.422936	0
211.34	0.0643087	0.235783	0.970509	0.284849	-0.15036	0.0996855	-0.377529	-0.244945	0.416293	0
211.35	0.0842953	0.239386	0.970698	0.261728	-0.170563	0.0569957	-0.398798	-0.281786	0.411715	0
211.36	0.0869168	0.241007	0.969962	0.258285	-0.187281	0.0166855	-0.401771	-0.310716	0.402825	0
211.37	0.0889458	0.242414	0.969596	0.25761	-0.208389	-0.012207	-0.400244	-0.345118	0.390086	0
211.38	0.0904504	0.243577	0.969393	0.259452	-0.234572	-0.0185104	-0.393091	-0.387493	0.368989	0
211.39	0.0916577	0.244887	0.969686	0.260701	-0.263261	-0.00678429	-0.381373	-0.435763	0.341694	0
211.4	0.0931569	0.245813	0.970261	0.261953	-0.294126	0.00814496	-0.365166	-0.489327	0.304536	0
211.41	0.0956878	0.246986	0.971411	0.259187	-0.320203	0.0259278	-0.347925	-0.543315	0.257256	0
211.42	0.0973752	0.248174	0.97277	0.25394	-0.340864	0.0460932	-0.325221	-0.600981	0.203443	0
211.43	0.09765	0.248813	0.974076	0.248928	-0.359156	0.0673461	-0.294837	-0.66427	0.142062	0
211.44	0.0964827	0.24899	0.975381	0.243158	-0.372438	0.081025	-0.258372	-0.731022	0.0746928	0
211.45	0.0939278	0.24859	0.976743	0.236656	-0.380054	0.0936321	-0.216265	-0.799458	0.00344117	0
211.46	0.0898912	0.247589	0.977971	0.232131	-0.387026	0.111371	-0.169647	-0.866887	-0.0674971	0
211.47	0.0700452	0.244543	0.97836	0.244337	-0.386775	0.128437	-0.104599	-0.926407	-0.1319	0
211.48	0.0684234	0.243888	0.979811	0.234444	-0.391434	0.144353	-0.0654731	-0.982128	-0.173262	0
211.49	0.0817904	0.245165	0.982275	0.206476	-0.399657	0.158083	-0.0469071	-1.03516	-0.183124	0
211.5	0.0775378	0.243681	0.984117	0.197295	-0.400165	0.172726	-0.00842214	-1.08085	-0.165805	0
211.51	0.0761215	0.242516	0.985925	0.187305	-0.405131	0.183373	0.0267335	-1.12294	-0.136229	0
211.52	0.0571957	0.23853	0.987103	0.195527	-0.399777	0.187067	0.0837752	-1.15646	-0.103185	0
211.53	0.0553018	0.237392	0.989351	0.18154	-0.394726	0.191938	0.116579	-1.18187	-0.0704011	0
211.54	0.0544902	0.236604	0.991515	0.164469	-0.386105	0.200273	0.147755	-1.20108	-0.0402025	0
211.55	0.0543117	0.235747	0.993706	0.145048	-0.375418	0.206928	0.17747	-1.21539	-0.0151443	0
211.56	0.0543553	0.234859	0.996084	0.12522	-0.363992	0.208309	0.204171	-1.22185	0.00623404	0
211.57	0.0540138	0.233797	0.998378	0.105702	-0.351244	0.209039	0.229019	-1.22059	0.02409	0
211.58	0.0735228	0.236508	1.00168	0.0628947	-0.344698	0.209977	0.223539	-1.21039	0.0400703	0
211.59	0.0575439	0.233045	1.00298	0.0594293	-0.321878	0.214071	0.265425	-1.19483	0.057151	0
211.6	0.0758641	0.235412	1.00577	0.0205576	-0.320479	0.225473	0.260377	-1.17643	0.0683895	0
211.61	0.0535913	0.230235	1.00605	0.0278534	-0.303524	0.225927	0.309102	-1.15259	0.0813285	0
211.62	0.051707	0.228449	1.0073	0.0105486	-0.293362	0.225362	0.326256	-1.12165	0.0908713	0
